<svg width="85" height="66" viewBox="0 0 85 66" fill="none" xmlns="http://www.w3.org/2000/svg">
<rect y="12" width="85" height="45" fill="#212224"/>
<rect x="38.0435" y="56.1182" width="6.62951" height="6.62951" transform="rotate(-45 38.0435 56.1182)" fill="#212224"/>
<path d="M27.0258 28.1274C27.0379 28.1274 27.0439 28.1455 27.0439 28.1819C27.0439 28.2182 27.0379 28.2363 27.0258 28.2363H25.8002C25.7154 28.2363 25.6428 28.2151 25.5823 28.1728C25.5217 28.1244 25.4158 28.0003 25.2645 27.8006C25.1132 27.6008 24.853 27.2377 24.4838 26.7111L24.3748 26.5568C24.1146 26.1876 23.9239 25.9303 23.8029 25.7851C23.6818 25.6338 23.5547 25.5279 23.4215 25.4673C23.2944 25.4068 23.125 25.3765 22.9131 25.3765H22.8314V27.501C22.8314 27.6825 22.8496 27.8187 22.8859 27.9095C22.9222 27.9942 22.9918 28.0517 23.0947 28.082C23.2037 28.1123 23.3701 28.1274 23.594 28.1274C23.6061 28.1274 23.6122 28.1455 23.6122 28.1819C23.6122 28.2182 23.6061 28.2363 23.594 28.2363C23.3943 28.2363 23.237 28.2333 23.122 28.2272L22.4411 28.2182L21.8055 28.2272C21.6966 28.2333 21.5423 28.2363 21.3425 28.2363C21.3304 28.2363 21.3244 28.2182 21.3244 28.1819C21.3244 28.1455 21.3304 28.1274 21.3425 28.1274C21.5665 28.1274 21.7299 28.1123 21.8328 28.082C21.9357 28.0517 22.0053 27.9942 22.0416 27.9095C22.084 27.8187 22.1051 27.6825 22.1051 27.501V23.2975C22.1051 23.116 22.087 22.9828 22.0507 22.8981C22.0144 22.8133 21.9448 22.7558 21.8419 22.7256C21.739 22.6893 21.5756 22.6711 21.3516 22.6711C21.3395 22.6711 21.3335 22.6529 21.3335 22.6166C21.3335 22.5803 21.3395 22.5622 21.3516 22.5622L21.8146 22.5712C22.0688 22.5833 22.2776 22.5894 22.4411 22.5894C22.6226 22.5894 22.8526 22.5833 23.131 22.5712L23.594 22.5622C23.6061 22.5622 23.6122 22.5803 23.6122 22.6166C23.6122 22.6529 23.6061 22.6711 23.594 22.6711C23.3762 22.6711 23.2127 22.6893 23.1038 22.7256C23.0009 22.7619 22.9283 22.8254 22.8859 22.9162C22.8496 23.001 22.8314 23.1341 22.8314 23.3157V25.2313C23.1583 25.2192 23.361 25.2131 23.4397 25.2131H23.5577L24.6109 23.7515C24.8711 23.3944 25.0012 23.125 25.0012 22.9435C25.0012 22.7619 24.859 22.6711 24.5745 22.6711C24.5624 22.6711 24.5564 22.6529 24.5564 22.6166C24.5564 22.5803 24.5624 22.5622 24.5745 22.5622L24.974 22.5712C25.2161 22.5833 25.437 22.5894 25.6367 22.5894C25.8546 22.5894 26.0786 22.5833 26.3086 22.5712L26.6536 22.5622C26.6717 22.5622 26.6808 22.5803 26.6808 22.6166C26.6808 22.6529 26.6717 22.6711 26.6536 22.6711C26.357 22.6711 26.0725 22.7558 25.8002 22.9253C25.5278 23.0948 25.2585 23.349 24.9922 23.6879L23.7756 25.2313C23.9572 25.2494 24.1085 25.3009 24.2296 25.3856C24.3567 25.4643 24.4807 25.5793 24.6018 25.7306C24.7228 25.8759 24.9226 26.1422 25.201 26.5295C25.4915 26.9411 25.7215 27.2498 25.8909 27.4556C26.0604 27.6613 26.2359 27.8248 26.4175 27.9458C26.5991 28.0608 26.8018 28.1213 27.0258 28.1274ZM27.5992 28.3453C27.4539 28.3453 27.3389 28.312 27.2542 28.2454C27.1694 28.1849 27.1271 28.0941 27.1271 27.973C27.1271 27.7491 27.2632 27.6371 27.5356 27.6371H27.7263C28.0652 27.6371 28.3557 27.4223 28.5978 26.9926C28.846 26.5628 29.0306 26.0272 29.1516 25.3856C29.2787 24.7441 29.3423 24.1146 29.3423 23.4973C29.3423 23.2067 29.2817 22.9979 29.1607 22.8708C29.0457 22.7377 28.8096 22.6711 28.4526 22.6711C28.4344 22.6711 28.4253 22.6529 28.4253 22.6166C28.4253 22.5803 28.4344 22.5622 28.4526 22.5622H32.8739C32.886 22.5622 32.892 22.5803 32.892 22.6166C32.892 22.6529 32.886 22.6711 32.8739 22.6711C32.6499 22.6711 32.4835 22.6893 32.3745 22.7256C32.2716 22.7558 32.199 22.8133 32.1566 22.8981C32.1203 22.9828 32.1022 23.116 32.1022 23.2975V27.501C32.1022 27.6825 32.1203 27.8187 32.1566 27.9095C32.199 27.9942 32.2716 28.0517 32.3745 28.082C32.4835 28.1123 32.6499 28.1274 32.8739 28.1274C32.886 28.1274 32.892 28.1455 32.892 28.1819C32.892 28.2182 32.886 28.2363 32.8739 28.2363C32.6802 28.2363 32.5258 28.2333 32.4108 28.2272L31.7663 28.2182L31.0944 28.2272C30.9855 28.2333 30.8281 28.2363 30.6224 28.2363C30.6102 28.2363 30.6042 28.2182 30.6042 28.1819C30.6042 28.1455 30.6102 28.1274 30.6224 28.1274C30.8523 28.1274 31.0188 28.1123 31.1217 28.082C31.2246 28.0517 31.2942 27.9942 31.3305 27.9095C31.3668 27.8248 31.385 27.6886 31.385 27.501V23.3611C31.385 23.1553 31.3729 23.0191 31.3486 22.9525C31.3305 22.886 31.2821 22.8436 31.2034 22.8254C31.1308 22.8073 30.9794 22.7982 30.7495 22.7982H30.2501C30.0686 22.7982 29.9324 22.8133 29.8416 22.8436C29.7508 22.8739 29.6842 22.9374 29.6419 23.0343C29.5995 23.1311 29.5783 23.2854 29.5783 23.4973C29.5783 24.1207 29.5178 24.8046 29.3967 25.549C29.2817 26.2935 29.076 26.9472 28.7794 27.51C28.4828 28.0669 28.0894 28.3453 27.5992 28.3453ZM38.8184 22.5622C38.8366 22.5622 38.8456 22.5803 38.8456 22.6166C38.8456 22.6529 38.8366 22.6711 38.8184 22.6711C38.655 22.6711 38.4946 22.7377 38.3372 22.8708C38.1799 22.9979 38.0497 23.1735 37.9469 23.3974L36.0222 27.6553C35.9132 27.8974 35.7892 28.0729 35.6499 28.1819C35.5168 28.2908 35.3443 28.3453 35.1325 28.3453C34.9327 28.3453 34.7663 28.2999 34.6331 28.2091C34.5 28.1183 34.4334 27.9973 34.4334 27.8459C34.4334 27.737 34.4697 27.6432 34.5424 27.5645C34.615 27.4798 34.7148 27.4374 34.8419 27.4374C34.9569 27.4374 35.0417 27.4677 35.0961 27.5282C35.1567 27.5887 35.2111 27.6735 35.2596 27.7824C35.2898 27.855 35.3201 27.9125 35.3504 27.9549C35.3806 27.9912 35.42 28.0094 35.4684 28.0094C35.5289 28.0094 35.5864 27.9791 35.6409 27.9186C35.6953 27.8581 35.7528 27.7582 35.8134 27.619L36.0676 27.0561L34.0793 23.3157C33.9462 23.0736 33.8251 22.9072 33.7162 22.8164C33.6133 22.7195 33.4741 22.6711 33.2986 22.6711C33.2865 22.6711 33.2804 22.6529 33.2804 22.6166C33.2804 22.5803 33.2865 22.5622 33.2986 22.5622L33.6254 22.5712C33.807 22.5833 33.9916 22.5894 34.1792 22.5894C34.4637 22.5894 34.7391 22.5833 35.0054 22.5712C35.0961 22.5652 35.2081 22.5622 35.3413 22.5622C35.3594 22.5622 35.3685 22.5803 35.3685 22.6166C35.3685 22.6529 35.3594 22.6711 35.3413 22.6711C34.9479 22.6711 34.7512 22.771 34.7512 22.9707C34.7512 23.0373 34.7784 23.122 34.8329 23.2249L36.4307 26.239L37.7199 23.3702C37.7683 23.2733 37.7925 23.1735 37.7925 23.0706C37.7925 22.8043 37.5655 22.6711 37.1116 22.6711C37.0935 22.6711 37.0844 22.6529 37.0844 22.6166C37.0844 22.5803 37.0935 22.5622 37.1116 22.5622L37.4929 22.5712C37.7108 22.5833 37.9045 22.5894 38.074 22.5894C38.1829 22.5894 38.316 22.5833 38.4734 22.5712L38.8184 22.5622ZM41.3714 25.0316C42.013 25.0316 42.5274 25.1526 42.9148 25.3947C43.3022 25.6368 43.4958 26.0211 43.4958 26.5477C43.4958 26.8806 43.4141 27.1772 43.2507 27.4374C43.0933 27.6977 42.8694 27.9034 42.5789 28.0548C42.2884 28.2 41.9585 28.2726 41.5893 28.2726C41.4259 28.2726 41.2352 28.2636 41.0174 28.2454C40.9266 28.2394 40.8176 28.2333 40.6905 28.2272C40.5634 28.2212 40.4242 28.2182 40.2729 28.2182L39.6374 28.2272C39.5224 28.2333 39.3681 28.2363 39.1744 28.2363C39.1562 28.2363 39.1471 28.2182 39.1471 28.1819C39.1471 28.1455 39.1562 28.1274 39.1744 28.1274C39.3923 28.1274 39.5527 28.1123 39.6556 28.082C39.7584 28.0517 39.828 27.9942 39.8644 27.9095C39.9007 27.8187 39.9188 27.6825 39.9188 27.501V23.2975C39.9188 23.116 39.9007 22.9828 39.8644 22.8981C39.828 22.8133 39.7584 22.7558 39.6556 22.7256C39.5587 22.6893 39.4014 22.6711 39.1835 22.6711C39.1714 22.6711 39.1653 22.6529 39.1653 22.6166C39.1653 22.5803 39.1714 22.5622 39.1835 22.5622H42.8331C42.8876 22.5622 42.9208 22.5712 42.933 22.5894C42.9511 22.6076 42.9602 22.6469 42.9602 22.7074L43.0691 23.933C43.0691 23.9512 43.051 23.9633 43.0147 23.9694C42.9844 23.9694 42.9662 23.9603 42.9602 23.9421C42.8876 23.5608 42.7453 23.2673 42.5335 23.0615C42.3277 22.8557 42.0735 22.7528 41.7709 22.7528H41.2988C41.1112 22.7528 40.972 22.771 40.8812 22.8073C40.7904 22.8375 40.7268 22.895 40.6905 22.9798C40.6542 23.0645 40.6361 23.1886 40.6361 23.352V25.077C40.9084 25.0467 41.1535 25.0316 41.3714 25.0316ZM41.4168 28.0911C41.8707 28.0911 42.2006 27.9821 42.4064 27.7642C42.6182 27.5463 42.7241 27.2195 42.7241 26.7837C42.7241 26.239 42.5849 25.8456 42.3065 25.6035C42.0342 25.3614 41.6408 25.2404 41.1263 25.2404C40.9508 25.2404 40.7874 25.2525 40.6361 25.2767V27.501C40.6361 27.7007 40.6875 27.849 40.7904 27.9458C40.8993 28.0426 41.1081 28.0911 41.4168 28.0911ZM50.5437 28.1274C50.5619 28.1274 50.571 28.1455 50.571 28.1819C50.571 28.2182 50.5619 28.2363 50.5437 28.2363C50.35 28.2363 50.1957 28.2333 50.0807 28.2272L49.427 28.2182L48.7098 28.2272C48.6069 28.2333 48.4647 28.2363 48.2831 28.2363C48.265 28.2363 48.2559 28.2182 48.2559 28.1819C48.2559 28.1455 48.265 28.1274 48.2831 28.1274C48.5131 28.1274 48.6826 28.1123 48.7915 28.082C48.9005 28.0517 48.9731 27.9942 49.0094 27.9095C49.0457 27.8187 49.0639 27.6825 49.0639 27.501V25.3856H45.7593V27.501C45.7593 27.6825 45.7774 27.8187 45.8137 27.9095C45.85 27.9942 45.9227 28.0517 46.0316 28.082C46.1406 28.1123 46.31 28.1274 46.54 28.1274C46.5521 28.1274 46.5582 28.1455 46.5582 28.1819C46.5582 28.2182 46.5521 28.2363 46.54 28.2363C46.3463 28.2363 46.192 28.2333 46.077 28.2272L45.378 28.2182L44.7334 28.2272C44.6184 28.2333 44.461 28.2363 44.2613 28.2363C44.2492 28.2363 44.2431 28.2182 44.2431 28.1819C44.2431 28.1455 44.2492 28.1274 44.2613 28.1274C44.4852 28.1274 44.6486 28.1123 44.7515 28.082C44.8605 28.0517 44.9331 27.9942 44.9694 27.9095C45.0118 27.8187 45.033 27.6825 45.033 27.501V23.2975C45.033 23.116 45.0148 22.9828 44.9785 22.8981C44.9422 22.8133 44.8726 22.7558 44.7697 22.7256C44.6668 22.6893 44.5034 22.6711 44.2794 22.6711C44.2613 22.6711 44.2522 22.6529 44.2522 22.6166C44.2522 22.5803 44.2613 22.5622 44.2794 22.5622L44.7424 22.5712C44.9966 22.5833 45.2085 22.5894 45.378 22.5894C45.5716 22.5894 45.8077 22.5833 46.0861 22.5712L46.54 22.5622C46.5521 22.5622 46.5582 22.5803 46.5582 22.6166C46.5582 22.6529 46.5521 22.6711 46.54 22.6711C46.3161 22.6711 46.1496 22.6893 46.0407 22.7256C45.9318 22.7619 45.8561 22.8254 45.8137 22.9162C45.7774 23.001 45.7593 23.1341 45.7593 23.3157V25.1768H49.0639V23.3157C49.0639 23.1341 49.0427 23.001 49.0003 22.9162C48.964 22.8254 48.8914 22.7619 48.7825 22.7256C48.6796 22.6893 48.5131 22.6711 48.2831 22.6711C48.265 22.6711 48.2559 22.6529 48.2559 22.6166C48.2559 22.5803 48.265 22.5622 48.2831 22.5622L48.7098 22.5712C48.9882 22.5833 49.2273 22.5894 49.427 22.5894C49.5965 22.5894 49.8144 22.5833 50.0807 22.5712L50.5437 22.5622C50.5619 22.5622 50.571 22.5803 50.571 22.6166C50.571 22.6529 50.5619 22.6711 50.5437 22.6711C50.3198 22.6711 50.1564 22.6893 50.0535 22.7256C49.9506 22.7558 49.8779 22.8133 49.8356 22.8981C49.7993 22.9828 49.7811 23.116 49.7811 23.2975V27.501C49.7811 27.6825 49.7993 27.8187 49.8356 27.9095C49.8779 27.9942 49.9506 28.0517 50.0535 28.082C50.1564 28.1123 50.3198 28.1274 50.5437 28.1274ZM53.7098 25.0316C54.9566 25.0316 55.58 25.5279 55.58 26.5205C55.58 26.8654 55.4983 27.1711 55.3349 27.4374C55.1775 27.7037 54.9536 27.9095 54.6631 28.0548C54.3726 28.2 54.0427 28.2726 53.6735 28.2726C53.5222 28.2726 53.3406 28.2636 53.1288 28.2454C53.0441 28.2394 52.9321 28.2333 52.7929 28.2272C52.6597 28.2212 52.5054 28.2182 52.3299 28.2182L51.7398 28.2272C51.6187 28.2333 51.4583 28.2363 51.2586 28.2363C51.2404 28.2363 51.2314 28.2182 51.2314 28.1819C51.2314 28.1455 51.2404 28.1274 51.2586 28.1274C51.4825 28.1213 51.6429 28.1062 51.7398 28.082C51.8366 28.0517 51.9032 27.9942 51.9395 27.9095C51.9819 27.8248 52.003 27.6886 52.003 27.501V23.2975C52.003 23.1099 51.9849 22.9768 51.9486 22.8981C51.9123 22.8133 51.8457 22.7558 51.7488 22.7256C51.652 22.6953 51.4916 22.6772 51.2677 22.6711C51.2556 22.6711 51.2495 22.6529 51.2495 22.6166C51.2495 22.5803 51.2556 22.5622 51.2677 22.5622L51.7034 22.5712C51.9698 22.5833 52.1846 22.5894 52.348 22.5894C52.5296 22.5894 52.7596 22.5833 53.038 22.5712L53.5101 22.5622C53.5222 22.5622 53.5283 22.5803 53.5283 22.6166C53.5283 22.6529 53.5222 22.6711 53.5101 22.6711C53.2801 22.6772 53.1106 22.6953 53.0017 22.7256C52.8988 22.7558 52.8262 22.8164 52.7838 22.9072C52.7414 22.9919 52.7203 23.1281 52.7203 23.3157V25.1223C53.0834 25.0618 53.4133 25.0316 53.7098 25.0316ZM53.501 28.0911C53.9671 28.0911 54.2999 27.9821 54.4997 27.7642C54.7055 27.5403 54.8083 27.1923 54.8083 26.7202C54.8083 26.1936 54.6964 25.8153 54.4724 25.5854C54.2485 25.3554 53.9096 25.2404 53.4556 25.2404C53.2377 25.2404 52.9926 25.2646 52.7203 25.313V27.501C52.7203 27.7007 52.7717 27.849 52.8746 27.9458C52.9775 28.0426 53.1863 28.0911 53.501 28.0911ZM57.541 27.501C57.541 27.6825 57.5592 27.8187 57.5955 27.9095C57.6318 27.9942 57.6984 28.0517 57.7952 28.082C57.8981 28.1123 58.0585 28.1274 58.2764 28.1274C58.2885 28.1274 58.2946 28.1455 58.2946 28.1819C58.2946 28.2182 58.2885 28.2363 58.2764 28.2363C58.0827 28.2363 57.9314 28.2333 57.8225 28.2272L57.1688 28.2182L56.5333 28.2272C56.4183 28.2333 56.2609 28.2363 56.0612 28.2363C56.0491 28.2363 56.043 28.2182 56.043 28.1819C56.043 28.1455 56.0491 28.1274 56.0612 28.1274C56.2791 28.1274 56.4395 28.1123 56.5424 28.082C56.6453 28.0517 56.7149 27.9942 56.7512 27.9095C56.7875 27.8187 56.8057 27.6825 56.8057 27.501V23.2975C56.8057 23.116 56.7875 22.9828 56.7512 22.8981C56.7149 22.8133 56.6453 22.7558 56.5424 22.7256C56.4395 22.6893 56.2791 22.6711 56.0612 22.6711C56.0491 22.6711 56.043 22.6529 56.043 22.6166C56.043 22.5803 56.0491 22.5622 56.0612 22.5622L56.5333 22.5712C56.7996 22.5833 57.0114 22.5894 57.1688 22.5894C57.3443 22.5894 57.5652 22.5833 57.8315 22.5712L58.2764 22.5622C58.2885 22.5622 58.2946 22.5803 58.2946 22.6166C58.2946 22.6529 58.2885 22.6711 58.2764 22.6711C58.0646 22.6711 57.9072 22.6893 57.8043 22.7256C57.7014 22.7619 57.6318 22.8254 57.5955 22.9162C57.5592 23.001 57.541 23.1341 57.541 23.3157V27.501ZM65.179 28.1274C65.1911 28.1274 65.1971 28.1455 65.1971 28.1819C65.1971 28.2182 65.1911 28.2363 65.179 28.2363C64.9792 28.2363 64.8219 28.2333 64.7069 28.2272L64.0532 28.2182L63.3451 28.2272C63.2361 28.2333 63.0909 28.2363 62.9093 28.2363C62.8911 28.2363 62.8821 28.2182 62.8821 28.1819C62.8821 28.1455 62.8911 28.1274 62.9093 28.1274C63.1393 28.1274 63.3087 28.1123 63.4177 28.082C63.5266 28.0517 63.5993 27.9942 63.6356 27.9095C63.6719 27.8187 63.6901 27.6825 63.6901 27.501V23.8604L60.4944 27.2649V27.501C60.4944 27.6825 60.5125 27.8187 60.5488 27.9095C60.5851 27.9942 60.6578 28.0517 60.7667 28.082C60.8757 28.1123 61.0451 28.1274 61.2751 28.1274C61.2872 28.1274 61.2933 28.1455 61.2933 28.1819C61.2933 28.2182 61.2872 28.2363 61.2751 28.2363C61.0814 28.2363 60.9271 28.2333 60.8121 28.2272L60.1131 28.2182L59.4685 28.2272C59.3535 28.2333 59.1961 28.2363 58.9964 28.2363C58.9843 28.2363 58.9782 28.2182 58.9782 28.1819C58.9782 28.1455 58.9843 28.1274 58.9964 28.1274C59.2203 28.1274 59.3837 28.1123 59.4866 28.082C59.5956 28.0517 59.6682 27.9942 59.7045 27.9095C59.7469 27.8187 59.7681 27.6825 59.7681 27.501V23.2975C59.7681 23.116 59.7499 22.9828 59.7136 22.8981C59.6773 22.8133 59.6077 22.7558 59.5048 22.7256C59.4019 22.6893 59.2385 22.6711 59.0145 22.6711C58.9964 22.6711 58.9873 22.6529 58.9873 22.6166C58.9873 22.5803 58.9964 22.5622 59.0145 22.5622L59.4776 22.5712C59.7318 22.5833 59.9436 22.5894 60.1131 22.5894C60.3067 22.5894 60.5428 22.5833 60.8212 22.5712L61.2751 22.5622C61.2872 22.5622 61.2933 22.5803 61.2933 22.6166C61.2933 22.6529 61.2872 22.6711 61.2751 22.6711C61.0512 22.6711 60.8847 22.6893 60.7758 22.7256C60.6669 22.7619 60.5912 22.8254 60.5488 22.9162C60.5125 23.001 60.4944 23.1341 60.4944 23.3157V26.9472L63.6901 23.5336V23.3157C63.6901 23.1341 63.6689 23.001 63.6265 22.9162C63.5902 22.8254 63.5176 22.7619 63.4086 22.7256C63.3057 22.6893 63.1393 22.6711 62.9093 22.6711C62.8911 22.6711 62.8821 22.6529 62.8821 22.6166C62.8821 22.5803 62.8911 22.5622 62.9093 22.5622L63.3451 22.5712C63.6235 22.5833 63.8595 22.5894 64.0532 22.5894C64.2227 22.5894 64.4406 22.5833 64.7069 22.5712L65.179 22.5622C65.1911 22.5622 65.1971 22.5803 65.1971 22.6166C65.1971 22.6529 65.1911 22.6711 65.179 22.6711C64.955 22.6711 64.7916 22.6893 64.6887 22.7256C64.5858 22.7558 64.5132 22.8133 64.4708 22.8981C64.4345 22.9828 64.4163 23.116 64.4163 23.2975V27.501C64.4163 27.6825 64.4345 27.8187 64.4708 27.9095C64.5132 27.9942 64.5858 28.0517 64.6887 28.082C64.7916 28.1123 64.955 28.1274 65.179 28.1274ZM62.0922 22.0174C62.3827 22.0174 62.5855 21.8328 62.7005 21.4636C62.7489 21.3063 62.7973 21.1913 62.8457 21.1187C62.8942 21.046 62.9759 21.0097 63.0909 21.0097C63.1877 21.0097 63.2603 21.0369 63.3087 21.0914C63.3632 21.1459 63.3905 21.2185 63.3905 21.3093C63.3905 21.4546 63.3299 21.5938 63.2089 21.7269C63.0878 21.854 62.9274 21.9569 62.7277 22.0356C62.528 22.1082 62.3192 22.1445 62.1013 22.1445C61.8834 22.1445 61.6746 22.1052 61.4749 22.0265C61.2812 21.9478 61.1238 21.8449 61.0028 21.7178C60.8817 21.5907 60.8212 21.4546 60.8212 21.3093C60.8212 21.2185 60.8454 21.1459 60.8938 21.0914C60.9483 21.0369 61.024 21.0097 61.1208 21.0097C61.2418 21.0097 61.3266 21.046 61.375 21.1187C61.4234 21.1913 61.4718 21.3063 61.5203 21.4636C61.5626 21.6271 61.6262 21.7602 61.7109 21.8631C61.8017 21.966 61.9288 22.0174 62.0922 22.0174Z" fill="#FDFBFB"/>
<path d="M21.2038 45.6005H21.7602C22.1311 45.6005 22.502 45.4488 22.873 45.1453C23.2439 44.8306 23.5923 44.3304 23.9183 43.6447C24.2218 43.004 24.4578 42.2341 24.6264 41.3348C24.795 40.4356 24.9299 39.0868 25.0311 37.2883L25.2503 33.6634L23.4631 32.9215V32.5337H33.3264V32.9046L31.7584 33.1407V45.6005H33.2084L33.4613 49.7313H32.9555L31.202 46.022H23.2102L21.4567 49.7313H20.9509L21.2038 45.6005ZM29.9037 45.6005V32.9552H25.7561L25.4863 37.2883C25.3627 39.143 25.2166 40.5312 25.048 41.4529C24.8793 42.3633 24.6489 43.1501 24.3567 43.8133C24.1768 44.218 23.9857 44.5552 23.7834 44.8249C23.5923 45.0835 23.4181 45.2802 23.2608 45.415C23.1034 45.5499 23.0247 45.6117 23.0247 45.6005H29.9037ZM41.4077 46.3592C40.1825 46.3592 39.0865 46.0614 38.1199 45.4656C37.1532 44.8699 36.4001 44.0381 35.8606 42.9703C35.3211 41.8912 35.0513 40.6604 35.0513 39.2779C35.0513 37.8953 35.3211 36.6701 35.8606 35.6023C36.4001 34.5232 37.1532 33.6858 38.1199 33.0901C39.0865 32.4944 40.1825 32.1965 41.4077 32.1965C42.6328 32.1965 43.7288 32.4944 44.6954 33.0901C45.6621 33.6858 46.4152 34.5232 46.9547 35.6023C47.4943 36.6701 47.764 37.8953 47.764 39.2779C47.764 40.6604 47.4943 41.8912 46.9547 42.9703C46.4152 44.0381 45.6621 44.8699 44.6954 45.4656C43.7288 46.0614 42.6328 46.3592 41.4077 46.3592ZM41.4077 45.9714C42.217 45.9714 42.942 45.7579 43.5826 45.3307C44.2346 44.9036 44.746 44.2854 45.1169 43.4761C45.4879 42.6556 45.6733 41.6889 45.6733 40.5761V37.9796C45.6733 36.8668 45.4879 35.9058 45.1169 35.0965C44.746 34.276 44.2346 33.6521 43.5826 33.225C42.942 32.7979 42.217 32.5843 41.4077 32.5843C40.5871 32.5843 39.8565 32.7979 39.2158 33.225C38.5751 33.6521 38.0693 34.276 37.6984 35.0965C37.3274 35.9058 37.142 36.8668 37.142 37.9796V40.5761C37.142 41.6889 37.3274 42.6556 37.6984 43.4761C38.0693 44.2854 38.5751 44.9036 39.2158 45.3307C39.8565 45.7579 40.5871 45.9714 41.4077 45.9714ZM56.368 46.1906L51.3436 33.1407V44.9935L52.9622 45.668V46.022H49.354V45.668L50.9389 44.9935V33.1407L49.3878 32.9046V32.5337H53.1139L57.3459 43.3581L61.6621 32.5337H65.0679V32.9046L63.5168 33.1407V45.415L65.0679 45.668V46.022H60.111V45.668L61.6621 45.415V33.6465L56.6714 46.1906H56.368Z" fill="#FDFBFB"/>
<path d="M42.785 39.6912C42.785 40.4075 42.2043 40.9882 41.4881 40.9882C40.7718 40.9882 40.1911 40.4075 40.1911 39.6912C40.1911 38.9749 40.7718 38.3943 41.4881 38.3943C42.2043 38.3943 42.785 38.9749 42.785 39.6912Z" fill="#A68E52"/>
</svg>
