<svg width="105" height="40" viewBox="0 0 105 40" fill="none" xmlns="http://www.w3.org/2000/svg">
<rect width="105" height="34" fill="#212224"/>
<rect x="46" y="33.8633" width="8.67863" height="8.67863" transform="rotate(-45 46 33.8633)" fill="#212224"/>
<path d="M14.79 12.71C15.87 12.71 16.71 13.05 17.31 13.73C17.91 14.4033 18.21 15.2867 18.21 16.38C18.21 17.48 17.9133 18.3867 17.32 19.1C16.7267 19.8133 15.8867 20.17 14.8 20.17C14.2467 20.17 13.75 20.07 13.31 19.87C12.87 19.67 12.51 19.3933 12.23 19.04C11.9567 18.6867 11.7467 18.2833 11.6 17.83C11.46 17.3767 11.39 16.8867 11.39 16.36C11.39 15.2467 11.6967 14.36 12.31 13.7C12.93 13.04 13.7567 12.71 14.79 12.71ZM14.79 13.53C13.9967 13.53 13.3867 13.81 12.96 14.37C12.54 14.9233 12.33 15.61 12.33 16.43C12.33 17.3233 12.5533 18.0367 13 18.57C13.4533 19.0967 14.0567 19.36 14.81 19.36C15.5567 19.36 16.1533 19.0933 16.6 18.56C17.0467 18.0267 17.27 17.3167 17.27 16.43C17.27 15.55 17.0433 14.8467 16.59 14.32C16.1433 13.7933 15.5433 13.53 14.79 13.53ZM26.5577 16.41C26.5577 17.29 26.2577 17.9667 25.6577 18.44C25.0577 18.9067 24.321 19.14 23.4477 19.14V20H22.5077V19.14C21.641 19.14 20.9043 18.9 20.2977 18.42C19.6977 17.94 19.3977 17.27 19.3977 16.41C19.3977 15.55 19.701 14.8733 20.3077 14.38C20.9143 13.88 21.6477 13.63 22.5077 13.63V12.88H23.4477V13.63C24.321 13.63 25.0577 13.8767 25.6577 14.37C26.2577 14.8633 26.5577 15.5433 26.5577 16.41ZM25.6077 16.41C25.6077 15.7767 25.4077 15.2933 25.0077 14.96C24.6143 14.62 24.0943 14.4333 23.4477 14.4V18.37C24.1077 18.3233 24.631 18.1433 25.0177 17.83C25.411 17.51 25.6077 17.0367 25.6077 16.41ZM22.5077 18.37V14.4C21.861 14.4333 21.3377 14.62 20.9377 14.96C20.5443 15.2933 20.3477 15.7767 20.3477 16.41C20.3477 17.0367 20.541 17.51 20.9277 17.83C21.321 18.1433 21.8477 18.3233 22.5077 18.37ZM28.1709 20V12.88H29.1109V18.91H29.1309L32.6209 12.88H33.8109V20H32.8709V13.95H32.8509L29.3509 20H28.1709ZM41.9177 17.31C41.8377 18.21 41.5243 18.9133 40.9777 19.42C40.4377 19.92 39.7243 20.17 38.8377 20.17C37.8243 20.17 37.021 19.8367 36.4277 19.17C35.8343 18.4967 35.5377 17.59 35.5377 16.45C35.5377 15.3833 35.8343 14.4967 36.4277 13.79C37.0277 13.0767 37.8543 12.72 38.9077 12.72C39.661 12.72 40.3243 12.9233 40.8977 13.33C41.471 13.7367 41.791 14.3 41.8577 15.02H40.9177C40.811 14.5533 40.5777 14.19 40.2177 13.93C39.8577 13.6633 39.4143 13.53 38.8877 13.53C38.0943 13.53 37.4943 13.81 37.0877 14.37C36.6877 14.93 36.4877 15.62 36.4877 16.44C36.4877 17.3467 36.701 18.06 37.1277 18.58C37.5543 19.1 38.1377 19.36 38.8777 19.36C39.4843 19.36 39.9677 19.1867 40.3277 18.84C40.6877 18.4867 40.9043 17.9767 40.9777 17.31H41.9177ZM52.5277 12.88V20H51.5877V13.7H47.8277V20H46.8877V12.88H52.5277ZM54.6445 12.88H57.5745C58.3011 12.88 58.8778 13.0467 59.3045 13.38C59.7311 13.7067 59.9445 14.2233 59.9445 14.93C59.9445 16.3633 59.1345 17.08 57.5145 17.08H55.5845V20H54.6445V12.88ZM55.5845 13.69V16.29H57.3945C57.9011 16.29 58.2945 16.1967 58.5745 16.01C58.8611 15.8167 59.0045 15.4767 59.0045 14.99C59.0045 14.7167 58.9578 14.49 58.8645 14.31C58.7778 14.13 58.6478 13.9967 58.4745 13.91C58.3011 13.8233 58.1211 13.7667 57.9345 13.74C57.7478 13.7067 57.5245 13.69 57.2645 13.69H55.5845ZM64.5888 12.71C65.6688 12.71 66.5088 13.05 67.1088 13.73C67.7088 14.4033 68.0088 15.2867 68.0088 16.38C68.0088 17.48 67.7122 18.3867 67.1188 19.1C66.5255 19.8133 65.6855 20.17 64.5988 20.17C64.0455 20.17 63.5488 20.07 63.1088 19.87C62.6688 19.67 62.3088 19.3933 62.0288 19.04C61.7555 18.6867 61.5455 18.2833 61.3988 17.83C61.2588 17.3767 61.1888 16.8867 61.1888 16.36C61.1888 15.2467 61.4955 14.36 62.1088 13.7C62.7288 13.04 63.5555 12.71 64.5888 12.71ZM64.5888 13.53C63.7955 13.53 63.1855 13.81 62.7588 14.37C62.3388 14.9233 62.1288 15.61 62.1288 16.43C62.1288 17.3233 62.3522 18.0367 62.7988 18.57C63.2522 19.0967 63.8555 19.36 64.6088 19.36C65.3555 19.36 65.9522 19.0933 66.3988 18.56C66.8455 18.0267 67.0688 17.3167 67.0688 16.43C67.0688 15.55 66.8422 14.8467 66.3888 14.32C65.9422 13.7933 65.3422 13.53 64.5888 13.53ZM75.9565 21.77H75.0465V20H69.8965V21.77H68.9865V19.18H69.6865C69.9598 18.6933 70.1832 17.9967 70.3565 17.09C70.5298 16.1767 70.6165 15.2333 70.6165 14.26V12.88H75.1665V19.18H75.9565V21.77ZM74.2265 19.18V13.7H71.5365V14.67C71.5365 15.53 71.4565 16.3833 71.2965 17.23C71.1432 18.07 70.9532 18.72 70.7265 19.18H74.2265ZM80.3933 12.88L83.1733 20H82.1233L81.3333 17.82H78.3433L77.5333 20H76.5333L79.3333 12.88H80.3933ZM81.0533 17.07L79.8433 13.78L78.6133 17.07H81.0533ZM93.6777 20H92.4977L89.8977 16.46L89.0577 17.34V20H88.1377V17.34L87.2977 16.46L84.6977 20H83.5177L86.6777 15.8L83.8377 12.88H85.0177L88.1377 16.19V12.88H89.0577V16.19L92.1777 12.88H93.3577L90.5177 15.8L93.6777 20Z" fill="#DDDDDD"/>
</svg>
