<svg width="85" height="46" viewBox="0 0 85 46" fill="none" xmlns="http://www.w3.org/2000/svg">
<rect width="85" height="46" fill="#212224"/>
<g clip-path="url(#clip0)">
<path d="M35.6299 21.3081H31.8158V21.0426H35.366V9.21319H35.3996V8.94765H35.6299V21.3081Z" fill="#DDDDDD"/>
<path d="M54.1301 21.3081H50.316V8.94765H50.5677V9.21319H50.5799V21.0426H54.1301V21.3081Z" fill="#DDDDDD"/>
<path d="M35.63 9.17493H30.0644V8.0253H35.63V9.17493ZM30.3283 8.90939H35.363V8.29544H30.3283V8.90939Z" fill="#DDDDDD"/>
<path d="M55.8816 9.17493H50.316V8.0253H55.8816V9.17493ZM50.5738 8.90939H55.6085V8.29544H50.5738V8.90939Z" fill="#DDDDDD"/>
<path d="M37.952 10.4903H37.6881V8.0222H41.0155V8.28774H37.952V10.4903Z" fill="#DDDDDD"/>
<path d="M37.952 13.6214H37.6881V11.1533H41.0155V11.4173H37.952V13.6214Z" fill="#DDDDDD"/>
<path d="M37.952 16.751H37.6881V14.2829H41.0155V14.5484H37.952V16.751Z" fill="#DDDDDD"/>
<path d="M36.8658 7.2379V19.6736H37.8208V19.408H37.1282V7.50344H41.9233V19.408H38.6615L38.3136 19.6736H42.1873V7.2379H36.8658Z" fill="#DDDDDD"/>
<path d="M37.952 19.976H37.6881V17.4127H41.0155V17.6782H37.952V19.976Z" fill="#DDDDDD"/>
<path d="M45.0998 10.4903H44.8358V8.0222H48.1617V8.28774H45.0998V10.4903Z" fill="#DDDDDD"/>
<path d="M45.0998 13.6214H44.8358V11.1533H48.1617V11.4173H45.0998V13.6214Z" fill="#DDDDDD"/>
<path d="M45.0998 16.751H44.8358V14.2829H48.1617V14.5484H45.0998V16.751Z" fill="#DDDDDD"/>
<path d="M43.8334 7.2379V19.6736H44.967V19.408H44.0958V7.50344H48.891V19.408H45.8092L45.4613 19.6736H49.1549V7.2379H43.8334Z" fill="#DDDDDD"/>
<path d="M45.0998 19.976H44.8358V17.4127H48.1617V17.6782H45.0998V19.976Z" fill="#DDDDDD"/>
<path d="M32.0965 17.4049H31.8326V21.1653H32.0965V17.4049Z" fill="#DDDDDD"/>
<path d="M54.1286 17.4049H53.8646V21.1653H54.1286V17.4049Z" fill="#DDDDDD"/>
<path d="M32.0965 9.14409H31.8326V12.9997H32.0965V9.14409Z" fill="#DDDDDD"/>
<path d="M54.1286 9.05062H53.8646V13.0014H54.1286V9.05062Z" fill="#DDDDDD"/>
<path d="M31.8952 12.7481H26.9307V13.0013H31.8952V12.7481Z" fill="#DDDDDD"/>
<path d="M58.9558 12.7481H53.9913V13.0013H58.9558V12.7481Z" fill="#DDDDDD"/>
<path d="M46.1387 5.64924V5.91324H50.3159V21.0426H35.6299V5.91324H46.2241V5.64924H35.366V21.3082H50.5799V5.64924H46.1387Z" fill="#DDDDDD"/>
<path d="M39.6745 5.77656V2.9938H46.2699V5.77042L39.6745 5.77656ZM46.006 5.79037V3.26548H39.9384V5.79651" fill="#DDDDDD"/>
<path d="M30.8059 25.3772C32.0355 25.3772 33.343 25.7901 34.2401 26.6803L33.2027 28.3825C32.6122 27.8668 31.7289 27.4401 30.9142 27.4401C29.0834 27.4401 28.3206 28.7432 28.3206 30.0709C28.3206 31.4369 29.1414 32.8429 30.9142 32.8429C31.8296 32.8429 32.7206 32.3394 33.3552 31.7086L34.5086 33.3586C34.0325 33.8582 33.4589 34.2535 32.8239 34.5197C32.1888 34.786 31.5059 34.9174 30.8181 34.9058C27.8705 34.9058 26.0122 32.8551 26.0122 30.1215C26 27.4401 27.9727 25.3772 30.8059 25.3772Z" fill="#C79205"/>
<path d="M35.7001 25.5321H37.9444V32.8167H41.6853V34.7507H35.7001V25.5321Z" fill="#C79205"/>
<path d="M42.5961 25.5321H44.8388V31.3647C44.8388 32.3317 45.4659 32.8474 46.4271 32.8474C47.3882 32.8474 48.0168 32.3317 48.0168 31.3647V25.5321H50.2595V31.3647C50.2595 33.4399 48.7476 34.9103 46.4454 34.9103C44.1126 34.9103 42.6007 33.4399 42.6007 31.3647L42.5961 25.5321Z" fill="#C79205"/>
<path d="M52.1437 25.5321H55.5139C57.3446 25.5321 58.6277 26.3579 58.6277 27.9434C58.6344 28.3353 58.5394 28.7222 58.3522 29.066C58.1649 29.4097 57.8918 29.6984 57.5598 29.9035V29.9296C58.6109 30.2519 58.9954 31.1928 58.9954 32.0048C58.9954 34.0155 57.3294 34.7507 55.5093 34.7507H52.1437V25.5321ZM55.5398 29.1038C56.1028 29.1038 56.3469 28.6909 56.3469 28.2535C56.3469 27.816 56.1028 27.4661 55.5001 27.4661H54.3879V29.1038H55.5398ZM55.732 32.8167C55.861 32.8251 55.9902 32.806 56.1113 32.7605C56.2324 32.7151 56.3425 32.6443 56.4344 32.553C56.5264 32.4617 56.5981 32.3518 56.6448 32.2305C56.6915 32.1093 56.7121 31.9795 56.7054 31.8497C56.7054 31.334 56.4003 30.9088 55.7442 30.9088H54.3879V32.8167H55.732Z" fill="#C79205"/>
<path d="M26.2517 37.6517H27.7316C28.0112 37.6322 28.2918 37.6665 28.5585 37.753C29.0391 37.9387 29.3427 38.3761 29.3427 38.9978C29.3427 39.4582 29.1291 39.9479 28.7065 40.1643V40.175C28.7651 40.2576 28.8186 40.3437 28.8667 40.4329L29.6936 41.9279H28.5341L27.7789 40.4866H27.2922V41.9279H26.2517V37.6517ZM27.7438 39.5902C27.8153 39.5984 27.8876 39.5906 27.9557 39.5672C28.0238 39.5439 28.0859 39.5057 28.1375 39.4554C28.1892 39.405 28.2291 39.3438 28.2544 39.2761C28.2797 39.2084 28.2898 39.1359 28.2839 39.0638C28.2839 38.8474 28.2305 38.6862 28.0352 38.6033C27.9092 38.5578 27.7754 38.538 27.6416 38.545H27.2922V39.5856L27.7438 39.5902Z" fill="#FDFBFB"/>
<path d="M30.2642 37.6517H32.928V38.5496H31.3047V39.3263H32.6V40.2242H31.3047V41.0316H33.0104V41.9279H30.2642V37.6517Z" fill="#FDFBFB"/>
<path d="M34.0036 40.5987C34.2856 40.8571 34.6454 41.0133 35.0258 41.0423C35.3172 41.0423 35.4667 40.9103 35.4667 40.743C35.4667 40.1383 33.5871 40.235 33.5871 38.9011C33.5871 38.1107 34.2355 37.5903 35.128 37.5903C35.6157 37.5846 36.0889 37.7569 36.4599 38.0754L36.019 38.9303C35.7569 38.7018 35.4257 38.5693 35.0792 38.5542C34.7649 38.5542 34.6215 38.6847 34.6215 38.8612C34.6215 39.4752 36.5011 39.3217 36.5011 40.6801C36.5011 41.3984 35.9717 42.0139 34.9907 42.0139C34.4172 42.019 33.8643 41.7987 33.4498 41.3999L34.0036 40.5987Z" fill="#FDFBFB"/>
<path d="M37.267 37.6517H38.3075V41.9279H37.267V37.6517Z" fill="#FDFBFB"/>
<path d="M39.3007 37.6517H40.8096C42.1476 37.6517 43.0035 38.4361 43.0035 39.7806C43.0035 41.1252 42.1476 41.9295 40.8096 41.9295H39.2992L39.3007 37.6517ZM40.7699 41.0285C41.4885 41.0285 41.9294 40.5972 41.9294 39.7776C41.9294 38.9579 41.4717 38.5496 40.7699 38.5496H40.3412V41.0316L40.7699 41.0285Z" fill="#FDFBFB"/>
<path d="M43.7831 37.6517H46.4545V38.5496H44.8236V39.3263H46.1204V40.2242H44.8236V41.0316H46.5308V41.9279H43.7846L43.7831 37.6517Z" fill="#FDFBFB"/>
<path d="M47.2966 37.6517H48.3493L49.5271 39.6471C49.6588 39.8836 49.778 40.127 49.8842 40.3762H49.8948C49.8948 40.3762 49.8475 39.9157 49.8475 39.6471V37.6517H50.888V41.9279H49.8414L48.659 39.9326C48.5273 39.6956 48.4081 39.4517 48.302 39.202H48.2853C48.2853 39.202 48.3326 39.6624 48.3326 39.9326V41.9279H47.2921L47.2966 37.6517Z" fill="#FDFBFB"/>
<path d="M53.8844 37.5795C54.4734 37.5671 55.0445 37.7838 55.4788 38.1843L54.9982 38.9732C54.702 38.7097 54.3252 38.5559 53.9302 38.5373C53.0804 38.5373 52.7295 39.1405 52.7295 39.7575C52.7295 40.3746 53.1109 41.0438 53.9302 41.0438C54.3602 41.0207 54.765 40.8322 55.0607 40.5173L55.5962 41.2848C55.3753 41.5168 55.109 41.7004 54.8142 41.824C54.5193 41.9476 54.2023 42.0086 53.8829 42.0031C52.5098 42.0031 51.6539 41.053 51.6539 39.7836C51.6555 38.5373 52.5709 37.5795 53.8844 37.5795Z" fill="#FDFBFB"/>
<path d="M56.2279 37.6517H58.8902V38.5496H57.2684V39.3263H58.5637V40.2242H57.2684V41.0316H58.9741V41.9279H56.2279V37.6517Z" fill="#FDFBFB"/>
</g>
<defs>
<clipPath id="clip0">
<rect width="33" height="39" fill="white" transform="translate(26 3)"/>
</clipPath>
</defs>
</svg>
